OneDof_KneeFl_states
version=1
nRows=27
nColumns=19
inDegrees=yes

# SIMM Motion File Header:
name OneDof_KneeFl_states
datacolumns 19
datarows 27
otherdata 1
range 3.97923471 4.27886579
endheader
time	/jointset/hip_r/hip_flexion_r/value	/jointset/hip_r/hip_flexion_r/speed	/jointset/walker_knee_r/knee_angle_r/value	/jointset/walker_knee_r/knee_angle_r/speed	/jointset/patellofemoral_r/knee_angle_r_beta/value	/jointset/patellofemoral_r/knee_angle_r_beta/speed	/jointset/ankle_r/ankle_angle_r/value	/jointset/ankle_r/ankle_angle_r/speed	/forceset/bflh_r/normalized_tendon_force	/forceset/bfsh_r/normalized_tendon_force	/forceset/gaslat_r/normalized_tendon_force	/forceset/gasmed_r/normalized_tendon_force	/forceset/recfem_r/normalized_tendon_force	/forceset/semimem_r/normalized_tendon_force	/forceset/semiten_r/normalized_tendon_force	/forceset/vasint_r/normalized_tendon_force	/forceset/vaslat_r/normalized_tendon_force	/forceset/vasmed_r/normalized_tendon_force
      3.97923471	      0.00000000	      0.00000000	    173.28833051	    757.81407538	      3.02445192	     13.22635073	     -0.00000000	     -0.00000000	      0.01089587	      0.06514007	      0.06463638	      0.04378920	      0.02451531	      0.04417977	      0.03341272	      0.01522695	      0.01349131	      0.01394227
      3.98354389	      0.00000000	      0.00000000	    176.52314966	    743.46331052	      3.08091017	     12.97588264	     -0.00000000	     -0.00000000	      0.01089587	      0.06514007	      0.06463638	      0.04378920	      0.02451531	      0.04417977	      0.03341272	      0.01522695	      0.01349131	      0.01394227
      3.98465156	      0.00000000	      0.00000000	    177.34457834	    739.69806601	      3.09524680	     12.91016672	     -0.00000000	     -0.00000000	      0.01089587	      0.06514007	      0.06463638	      0.04378920	      0.02451531	      0.04417977	      0.03341272	      0.01522695	      0.01349131	      0.01394227
      3.98514486	      0.00000000	      0.00000000	    177.70907839	    738.13570944	      3.10160853	     12.88289846	     -0.00000000	     -0.00000000	      0.01089587	      0.06514007	      0.06463638	      0.04378920	      0.02451531	      0.04417977	      0.03341272	      0.01522695	      0.01349131	      0.01394227
      3.98563816	      0.00000000	      0.00000000	    178.07281839	    736.59166604	      3.10795699	     12.85594982	     -0.00000000	     -0.00000000	      0.01089587	      0.06514007	      0.06463638	      0.04378920	      0.02451531	      0.04417977	      0.03341272	      0.01522695	      0.01349131	      0.01394227
      3.98810464	      0.00000000	      0.00000000	    179.88000486	    728.77489456	      3.13949834	     12.71952142	     -0.00000000	     -0.00000000	      0.01089587	      0.06514007	      0.06463638	      0.04378920	      0.02451531	      0.04417977	      0.03341272	      0.01522695	      0.01349131	      0.01394227
      3.99431769	      0.00000000	      0.00000000	    184.34520883	    708.44418851	      3.21743085	     12.36468366	     -0.00000000	     -0.00000000	      0.01089587	      0.06514007	      0.06463638	      0.04378920	      0.02451531	      0.04417977	      0.03341272	      0.01522695	      0.01349131	      0.01394227
      4.00461150	      0.00000000	      0.00000000	    191.45762266	    673.13827692	      3.34156589	     11.74847925	     -0.00000000	     -0.00000000	      0.01089587	      0.06514007	      0.06463638	      0.04378920	      0.02451531	      0.04417977	      0.03341272	      0.01522695	      0.01349131	      0.01394227
      4.03472825	      0.00000000	      0.00000000	    210.07838944	    561.89024551	      3.66655958	      9.80683482	     -0.00000000	     -0.00000000	      0.01089587	      0.06514007	      0.06463638	      0.04378920	      0.02451531	      0.04417977	      0.03341272	      0.01522695	      0.01349131	      0.01394227
      4.05492484	      0.00000000	     -0.00000000	    220.64200608	    483.99136940	      3.85092947	      8.44724295	     -0.00000000	     -0.00000000	      0.01089587	      0.06514007	      0.06463638	      0.04378920	      0.02451531	      0.04417977	      0.03341272	      0.01522695	      0.01349131	      0.01394227
      4.06022386	      0.00000000	     -0.00000000	    223.15217681	    463.44380491	      3.89474022	      8.08862029	     -0.00000000	     -0.00000000	      0.01089587	      0.06514007	      0.06463638	      0.04378920	      0.02451531	      0.04417977	      0.03341272	      0.01522695	      0.01349131	      0.01394227
      4.06552289	      0.00000000	     -0.00000000	    225.55386758	    443.01558401	      3.93665763	      7.73208058	     -0.00000000	     -0.00000000	      0.01089587	      0.06514007	      0.06463638	      0.04378920	      0.02451531	      0.04417977	      0.03341272	      0.01522695	      0.01349131	      0.01394227
      4.07278801	      0.00000000	     -0.00000000	    228.67073412	    415.03247649	      3.99105721	      7.24368322	     -0.00000000	     -0.00000000	      0.01089587	      0.06514007	      0.06463638	      0.04378920	      0.02451531	      0.04417977	      0.03341272	      0.01522695	      0.01349131	      0.01394227
      4.09189534	      0.00000000	     -0.00000000	    235.90173374	    342.02726496	      4.11726196	      5.96950191	     -0.00000000	     -0.00000000	      0.01089587	      0.06514007	      0.06463638	      0.04378920	      0.02451531	      0.04417977	      0.03341272	      0.01522695	      0.01349131	      0.01394227
      4.09408895	      0.00000000	     -0.00000000	    236.64289500	    333.72162547	      4.13019767	      5.82454115	     -0.00000000	     -0.00000000	      0.01089587	      0.06514007	      0.06463638	      0.04378920	      0.02451531	      0.04417977	      0.03341272	      0.01522695	      0.01349131	      0.01394227
      4.09454808	      0.00000000	     -0.00000000	    236.79571716	    331.99028816	      4.13286492	      5.79432361	     -0.00000000	     -0.00000000	      0.01089587	      0.06514007	      0.06463638	      0.04378920	      0.02451531	      0.04417977	      0.03341272	      0.01522695	      0.01349131	      0.01394227
      4.09516327	      0.00000000	     -0.00000000	    236.99925304	    329.70182085	      4.13641729	      5.75438232	     -0.00000000	     -0.00000000	      0.01089587	      0.06514007	      0.06463638	      0.04378920	      0.02451531	      0.04417977	      0.03341272	      0.01522695	      0.01349131	      0.01394227
      4.09747295	      0.00000000	     -0.00000000	    237.75083324	    321.10811441	      4.14953484	      5.60439385	     -0.00000000	     -0.00000000	      0.01089587	      0.06514007	      0.06463638	      0.04378920	      0.02451531	      0.04417977	      0.03341272	      0.01522695	      0.01349131	      0.01394227
      4.10321619	      0.00000000	     -0.00000000	    239.53380266	    299.80493357	      4.18065353	      5.23258320	     -0.00000000	     -0.00000000	      0.01089587	      0.06514007	      0.06463638	      0.04378920	      0.02451531	      0.04417977	      0.03341272	      0.01522695	      0.01349131	      0.01394227
      4.11448549	      0.00000000	     -0.00000000	    242.67863975	    258.41739207	      4.23554129	      4.51023434	     -0.00000000	     -0.00000000	      0.01089587	      0.06514007	      0.06463638	      0.04378920	      0.02451531	      0.04417977	      0.03341272	      0.01522695	      0.01349131	      0.01394227
      4.13393979	      0.00000000	     -0.00000000	    247.02179214	    188.36936922	      4.31134360	      3.28766570	     -0.00000000	     -0.00000000	      0.01089587	      0.06514007	      0.06463638	      0.04378920	      0.02451531	      0.04417977	      0.03341272	      0.01522695	      0.01349131	      0.01394227
      4.15972415	      0.00000000	     -0.00000000	    250.70738943	     97.89010162	      4.37566940	      1.70850458	     -0.00000000	     -0.00000000	      0.01089587	      0.06514007	      0.06463638	      0.04378920	      0.02451531	      0.04417977	      0.03341272	      0.01522695	      0.01349131	      0.01394227
      4.18550851	      0.00000000	     -0.00000000	    252.08430070	      9.07975933	      4.39970104	      0.15847170	     -0.00000000	     -0.00000000	      0.01089587	      0.06514007	      0.06463638	      0.04378920	      0.02451531	      0.04417977	      0.03341272	      0.01522695	      0.01349131	      0.01394227
      4.22036134	      0.00000000	      0.00000000	    250.31595845	   -110.75417074	      4.36883765	     -1.93302494	     -0.00000000	     -0.00000000	      0.01089587	      0.06514007	      0.06463638	      0.04378920	      0.02451531	      0.04417977	      0.03341272	      0.01522695	      0.01349131	      0.01394227
      4.24577211	      0.00000000	      0.00000000	    246.37566542	   -199.71768980	      4.30006656	     -3.48573126	     -0.00000000	     -0.00000000	      0.01089587	      0.06514007	      0.06463638	      0.04378920	      0.02451531	      0.04417977	      0.03341272	      0.01522695	      0.01349131	      0.01394227
      4.26843892	      0.00000000	      0.00000000	    240.93004796	   -281.13408916	      4.20502260	     -4.90671550	     -0.00000000	     -0.00000000	      0.01089587	      0.06514007	      0.06463638	      0.04378920	      0.02451531	      0.04417977	      0.03341272	      0.01522695	      0.01349131	      0.01394227
      4.27886579	      0.00000000	      0.00000000	    237.80007678	   -319.29619371	      4.15039430	     -5.57276987	     -0.00000000	     -0.00000000	      0.01089587	      0.06514007	      0.06463638	      0.04378920	      0.02451531	      0.04417977	      0.03341272	      0.01522695	      0.01349131	      0.01394227
